<?xml version="1.0" encoding="UTF-8" standalone="no"?>
<!-- Generator: Adobe Illustrator 15.0.0, SVG Export Plug-In . SVG Version: 6.00 Build 0)  -->

<svg
   xmlns:dc="http://purl.org/dc/elements/1.1/"
   xmlns:cc="http://creativecommons.org/ns#"
   xmlns:rdf="http://www.w3.org/1999/02/22-rdf-syntax-ns#"
   xmlns:svg="http://www.w3.org/2000/svg"
   xmlns="http://www.w3.org/2000/svg"
   xmlns:sodipodi="http://sodipodi.sourceforge.net/DTD/sodipodi-0.dtd"
   xmlns:inkscape="http://www.inkscape.org/namespaces/inkscape"
   version="1.1"
   id="Layer_1"
   x="0px"
   y="0px"
   width="555.12"
   height="280.32501"
   viewBox="0 0 555.11999 280.325"
   enable-background="new 0 0 841.89 595.28"
   xml:space="preserve"
   inkscape:version="0.91 r13725"
   sodipodi:docname="Logo DARIAH-DE_CMYK_en.svg"><metadata
     id="metadata143"><rdf:RDF><cc:Work
         rdf:about=""><dc:format>image/svg+xml</dc:format><dc:type
           rdf:resource="http://purl.org/dc/dcmitype/StillImage" /><dc:title></dc:title></cc:Work></rdf:RDF></metadata><defs
     id="defs141" /><sodipodi:namedview
     pagecolor="#ffffff"
     bordercolor="#666666"
     borderopacity="1"
     objecttolerance="10"
     gridtolerance="10"
     guidetolerance="10"
     inkscape:pageopacity="0"
     inkscape:pageshadow="2"
     inkscape:window-width="640"
     inkscape:window-height="480"
     id="namedview139"
     showgrid="false"
     fit-margin-top="20"
     fit-margin-left="20"
     fit-margin-right="20"
     fit-margin-bottom="20"
     inkscape:zoom="0.46149499"
     inkscape:cx="276.83501"
     inkscape:cy="139.90399"
     inkscape:window-x="0"
     inkscape:window-y="23"
     inkscape:window-maximized="0"
     inkscape:current-layer="Layer_1" /><g
     id="g3"
     transform="translate(-144.11,-157.219)"><path
       d="m 250.152,356.073 c 1.734,-0.292 3.8,-0.493 6.062,-0.493 4.1,0 7.013,0.986 8.945,2.754 1.998,1.802 3.147,4.361 3.147,7.936 0,3.603 -1.149,6.552 -3.179,8.58 -2.098,2.065 -5.503,3.179 -9.799,3.179 -2.065,0 -3.736,-0.096 -5.177,-0.26 l 0,-21.696 z m 2.853,19.534 c 0.719,0.1 1.768,0.131 2.881,0.131 6.129,0 9.407,-3.41 9.407,-9.373 0.032,-5.212 -2.918,-8.522 -8.95,-8.522 -1.473,0 -2.587,0.131 -3.338,0.297 l 0,17.467 z"
       id="path5"
       inkscape:connector-curvature="0"
       style="fill:#003564" /><path
       d="m 275.792,357.515 c 0,0.985 -0.688,1.773 -1.838,1.773 -1.049,0 -1.737,-0.788 -1.737,-1.773 0,-0.982 0.72,-1.802 1.806,-1.802 1.047,0 1.769,0.788 1.769,1.802 z m -3.215,20.322 0,-15.863 2.886,0 0,15.863 -2.886,0 z"
       id="path7"
       inkscape:connector-curvature="0"
       style="fill:#003564" /><path
       d="m 294.509,375.506 c 0,3.671 -0.757,5.869 -2.263,7.277 -1.573,1.408 -3.802,1.898 -5.804,1.898 -1.898,0 -3.995,-0.457 -5.275,-1.31 l 0.721,-2.229 c 1.049,0.688 2.689,1.28 4.659,1.28 2.946,0 5.107,-1.542 5.107,-5.571 l 0,-1.738 -0.065,0 c -0.849,1.474 -2.584,2.654 -5.042,2.654 -3.939,0 -6.756,-3.342 -6.756,-7.734 0,-5.375 3.506,-8.39 7.181,-8.39 2.752,0 4.228,1.411 4.946,2.718 l 0.064,0 0.101,-2.389 2.557,0 c -0.1,1.112 -0.131,2.421 -0.131,4.327 l 0,9.207 z m -2.887,-7.277 c 0,-0.487 -0.033,-0.913 -0.16,-1.276 -0.527,-1.701 -1.905,-3.078 -4.035,-3.078 -2.754,0 -4.715,2.324 -4.715,5.997 0,3.112 1.602,5.699 4.684,5.699 1.8,0 3.41,-1.113 3.998,-2.945 0.164,-0.494 0.229,-1.05 0.229,-1.543 l 0,-2.854 z"
       id="path9"
       inkscape:connector-curvature="0"
       style="fill:#003564" /><path
       d="m 302.974,357.515 c 0,0.985 -0.688,1.773 -1.833,1.773 -1.05,0 -1.738,-0.788 -1.738,-1.773 0,-0.982 0.721,-1.802 1.802,-1.802 1.047,0 1.769,0.788 1.769,1.802 z m -3.211,20.322 0,-15.863 2.882,0 0,15.863 -2.882,0 z"
       id="path11"
       inkscape:connector-curvature="0"
       style="fill:#003564" /><path
       d="m 311.595,358.172 0,3.802 4.132,0 0,2.197 -4.132,0 0,8.55 c 0,1.97 0.562,3.083 2.167,3.083 0.787,0 1.243,-0.065 1.669,-0.196 l 0.136,2.196 c -0.562,0.193 -1.446,0.394 -2.562,0.394 -1.341,0 -2.425,-0.46 -3.11,-1.218 -0.788,-0.881 -1.117,-2.289 -1.117,-4.158 l 0,-8.65 -2.456,0 0,-2.197 2.456,0 0,-2.95 2.817,-0.853 z"
       id="path13"
       inkscape:connector-curvature="0"
       style="fill:#003564" /><path
       d="m 330.81,374.033 c 0,1.377 0.063,2.723 0.231,3.804 l -2.594,0 -0.228,-2.002 -0.102,0 c -0.88,1.246 -2.586,2.362 -4.847,2.362 -3.214,0 -4.853,-2.267 -4.853,-4.557 0,-3.835 3.407,-5.93 9.54,-5.898 l 0,-0.329 c 0,-1.281 -0.36,-3.671 -3.607,-3.638 -1.51,0 -3.046,0.429 -4.163,1.18 l -0.651,-1.933 c 1.309,-0.821 3.241,-1.378 5.244,-1.378 4.846,0 6.028,3.311 6.028,6.457 l 0,5.932 z m -2.788,-4.295 c -3.146,-0.062 -6.717,0.493 -6.717,3.575 0,1.896 1.241,2.754 2.688,2.754 2.098,0 3.437,-1.313 3.902,-2.658 0.095,-0.328 0.127,-0.656 0.127,-0.916 l 0,-2.755 z"
       id="path15"
       inkscape:connector-curvature="0"
       style="fill:#003564" /><path
       d="m 336.156,354.564 2.886,0 0,23.272 -2.886,0 0,-23.272 z"
       id="path17"
       inkscape:connector-curvature="0"
       style="fill:#003564" /><path
       d="m 352.328,356.042 c 1.44,-0.261 3.537,-0.462 5.468,-0.462 3.049,0 5.051,0.592 6.393,1.802 1.084,0.986 1.736,2.495 1.736,4.228 0,2.886 -1.838,4.818 -4.126,5.607 l 0,0.1 c 1.667,0.584 2.685,2.162 3.21,4.456 0.719,3.077 1.244,5.207 1.704,6.064 l -2.954,0 c -0.36,-0.656 -0.848,-2.526 -1.441,-5.276 -0.656,-3.05 -1.865,-4.195 -4.454,-4.296 l -2.686,0 0,9.572 -2.85,0 0,-21.795 z m 2.85,10.058 2.913,0 c 3.051,0 4.979,-1.669 4.979,-4.194 0,-2.85 -2.061,-4.095 -5.075,-4.095 -1.378,0 -2.329,0.101 -2.817,0.229 l 0,8.06 z"
       id="path19"
       inkscape:connector-curvature="0"
       style="fill:#003564" /><path
       d="m 372.294,370.427 c 0.062,3.904 2.521,5.504 5.439,5.504 2.065,0 3.342,-0.359 4.39,-0.816 l 0.525,2.066 c -1.013,0.455 -2.786,1.017 -5.312,1.017 -4.881,0 -7.798,-3.246 -7.798,-8.03 0,-4.787 2.817,-8.522 7.437,-8.522 5.213,0 6.558,4.523 6.558,7.441 0,0.59 -0.033,1.014 -0.097,1.341 l -11.142,0 z m 8.453,-2.062 c 0.033,-1.806 -0.753,-4.659 -3.995,-4.659 -2.954,0 -4.194,2.659 -4.427,4.659 l 8.422,0 z"
       id="path21"
       inkscape:connector-curvature="0"
       style="fill:#003564" /><path
       d="m 387.407,374.918 c 0.89,0.524 2.394,1.114 3.835,1.114 2.065,0 3.05,-1.013 3.05,-2.358 0,-1.377 -0.82,-2.098 -2.917,-2.886 -2.887,-1.05 -4.229,-2.591 -4.229,-4.487 0,-2.559 2.099,-4.656 5.473,-4.656 1.608,0 3.019,0.43 3.866,0.981 l -0.689,2.097 c -0.619,-0.392 -1.769,-0.947 -3.241,-0.947 -1.705,0 -2.621,0.98 -2.621,2.165 0,1.309 0.916,1.897 2.981,2.718 2.723,1.018 4.164,2.39 4.164,4.751 0,2.818 -2.199,4.788 -5.9,4.788 -1.737,0 -3.344,-0.46 -4.459,-1.116 l 0.687,-2.164 z"
       id="path23"
       inkscape:connector-curvature="0"
       style="fill:#003564" /><path
       d="m 403.081,370.427 c 0.065,3.904 2.523,5.504 5.44,5.504 2.064,0 3.342,-0.359 4.392,-0.816 l 0.523,2.066 c -1.013,0.455 -2.785,1.017 -5.312,1.017 -4.878,0 -7.797,-3.246 -7.797,-8.03 0,-4.787 2.818,-8.522 7.438,-8.522 5.211,0 6.557,4.523 6.557,7.441 0,0.59 -0.032,1.014 -0.098,1.341 l -11.143,0 z m 8.455,-2.062 c 0.032,-1.806 -0.752,-4.659 -3.994,-4.659 -2.955,0 -4.196,2.659 -4.427,4.659 l 8.421,0 z"
       id="path25"
       inkscape:connector-curvature="0"
       style="fill:#003564" /><path
       d="m 429.731,374.033 c 0,1.377 0.069,2.723 0.232,3.804 l -2.589,0 -0.229,-2.002 -0.101,0 c -0.885,1.246 -2.59,2.362 -4.846,2.362 -3.215,0 -4.853,-2.267 -4.853,-4.557 0,-3.835 3.406,-5.93 9.535,-5.898 l 0,-0.329 c 0,-1.281 -0.36,-3.671 -3.603,-3.638 -1.51,0 -3.051,0.429 -4.163,1.18 l -0.657,-1.933 c 1.313,-0.821 3.242,-1.378 5.244,-1.378 4.851,0 6.027,3.311 6.027,6.457 l 0,5.932 z m -2.784,-4.295 c -3.147,-0.062 -6.718,0.493 -6.718,3.575 0,1.896 1.245,2.754 2.689,2.754 2.099,0 3.439,-1.313 3.899,-2.658 0.097,-0.328 0.129,-0.656 0.129,-0.916 l 0,-2.755 z"
       id="path27"
       inkscape:connector-curvature="0"
       style="fill:#003564" /><path
       d="m 435.083,366.921 c 0,-1.87 -0.031,-3.475 -0.131,-4.947 l 2.525,0 0.132,3.146 0.097,0 c 0.721,-2.134 2.489,-3.475 4.426,-3.475 0.294,0 0.521,0.033 0.785,0.064 l 0,2.722 c -0.297,-0.068 -0.592,-0.068 -0.983,-0.068 -2.033,0 -3.476,1.509 -3.868,3.675 -0.062,0.394 -0.096,0.881 -0.096,1.34 l 0,8.46 -2.887,0 0,-10.917 z"
       id="path29"
       inkscape:connector-curvature="0"
       style="fill:#003564" /><path
       d="m 457.476,377.276 c -0.756,0.359 -2.426,0.921 -4.556,0.921 -4.782,0 -7.897,-3.246 -7.897,-8.098 0,-4.88 3.338,-8.455 8.518,-8.455 1.705,0 3.211,0.43 4.003,0.853 l -0.656,2.193 c -0.688,-0.359 -1.769,-0.752 -3.347,-0.752 -3.635,0 -5.604,2.723 -5.604,5.997 0,3.673 2.362,5.932 5.508,5.932 1.638,0 2.723,-0.393 3.538,-0.753 l 0.493,2.162 z"
       id="path31"
       inkscape:connector-curvature="0"
       style="fill:#003564" /><path
       d="m 461.546,354.564 2.882,0 0,9.931 0.068,0 c 0.46,-0.821 1.181,-1.572 2.065,-2.061 0.852,-0.498 1.869,-0.79 2.95,-0.79 2.129,0 5.539,1.31 5.539,6.754 l 0,9.438 -2.886,0 0,-9.11 c 0,-2.559 -0.948,-4.692 -3.671,-4.692 -1.864,0 -3.31,1.313 -3.866,2.854 -0.164,0.428 -0.2,0.854 -0.2,1.376 l 0,9.572 -2.882,0 0,-23.272 z"
       id="path33"
       inkscape:connector-curvature="0"
       style="fill:#003564" /><path
       d="m 491.021,355.745 0,22.092 -2.88,0 0,-22.092 2.88,0 z"
       id="path35"
       inkscape:connector-curvature="0"
       style="fill:#003564" /><path
       d="m 496.926,366.27 c 0,-1.675 -0.031,-2.986 -0.132,-4.296 l 2.559,0 0.163,2.621 0.065,0 c 0.786,-1.473 2.625,-2.95 5.242,-2.95 2.197,0 5.604,1.31 5.604,6.754 l 0,9.438 -2.883,0 0,-9.147 c 0,-2.558 -0.952,-4.688 -3.669,-4.688 -1.87,0 -3.344,1.346 -3.867,2.951 -0.133,0.363 -0.196,0.853 -0.196,1.345 l 0,9.539 -2.887,0 0,-11.567 z"
       id="path37"
       inkscape:connector-curvature="0"
       style="fill:#003564" /><path
       d="m 516.112,377.837 0,-13.666 -2.197,0 0,-2.197 2.197,0 0,-0.757 c 0,-2.226 0.519,-4.259 1.833,-5.536 1.08,-1.048 2.521,-1.477 3.865,-1.477 1.049,0 1.901,0.232 2.458,0.46 l -0.393,2.23 c -0.424,-0.2 -0.983,-0.362 -1.832,-0.362 -2.459,0 -3.082,2.13 -3.082,4.589 l 0,0.853 3.834,0 0,2.197 -3.834,0 0,13.666 -2.849,0 z"
       id="path39"
       inkscape:connector-curvature="0"
       style="fill:#003564" /><path
       d="m 526.078,366.921 c 0,-1.87 -0.032,-3.475 -0.132,-4.947 l 2.525,0 0.127,3.146 0.098,0 c 0.725,-2.134 2.494,-3.475 4.427,-3.475 0.297,0 0.524,0.033 0.784,0.064 l 0,2.722 c -0.292,-0.068 -0.587,-0.068 -0.98,-0.068 -2.028,0 -3.475,1.509 -3.871,3.675 -0.063,0.394 -0.097,0.881 -0.097,1.34 l 0,8.46 -2.881,0 0,-10.917 z"
       id="path41"
       inkscape:connector-curvature="0"
       style="fill:#003564" /><path
       d="m 548.471,374.033 c 0,1.377 0.062,2.723 0.223,3.804 l -2.585,0 -0.232,-2.002 -0.097,0 c -0.883,1.246 -2.585,2.362 -4.851,2.362 -3.21,0 -4.853,-2.267 -4.853,-4.557 0,-3.835 3.411,-5.93 9.54,-5.898 l 0,-0.329 c 0,-1.281 -0.359,-3.671 -3.606,-3.638 -1.506,0 -3.047,0.429 -4.163,1.18 l -0.652,-1.933 c 1.308,-0.821 3.245,-1.378 5.243,-1.378 4.848,0 6.033,3.311 6.033,6.457 l 0,5.932 z m -2.787,-4.295 c -3.146,-0.062 -6.721,0.493 -6.721,3.575 0,1.896 1.245,2.754 2.687,2.754 2.098,0 3.441,-1.313 3.898,-2.658 0.104,-0.328 0.136,-0.656 0.136,-0.916 l 0,-2.755 z"
       id="path43"
       inkscape:connector-curvature="0"
       style="fill:#003564" /><path
       d="m 553.425,374.918 c 0.885,0.524 2.394,1.114 3.835,1.114 2.065,0 3.051,-1.013 3.051,-2.358 0,-1.377 -0.825,-2.098 -2.924,-2.886 -2.882,-1.05 -4.226,-2.591 -4.226,-4.487 0,-2.559 2.098,-4.656 5.476,-4.656 1.604,0 3.014,0.43 3.866,0.981 l -0.688,2.097 c -0.625,-0.392 -1.769,-0.947 -3.242,-0.947 -1.706,0 -2.627,0.98 -2.627,2.165 0,1.309 0.921,1.897 2.986,2.718 2.718,1.018 4.162,2.39 4.162,4.751 0,2.818 -2.2,4.788 -5.898,4.788 -1.737,0 -3.348,-0.46 -4.459,-1.116 l 0.688,-2.164 z"
       id="path45"
       inkscape:connector-curvature="0"
       style="fill:#003564" /><path
       d="m 570.965,358.172 0,3.802 4.132,0 0,2.197 -4.132,0 0,8.55 c 0,1.97 0.56,3.083 2.161,3.083 0.787,0 1.25,-0.065 1.674,-0.196 l 0.127,2.196 c -0.551,0.193 -1.44,0.394 -2.553,0.394 -1.346,0 -2.425,-0.46 -3.114,-1.218 -0.784,-0.881 -1.112,-2.289 -1.112,-4.158 l 0,-8.65 -2.458,0 0,-2.197 2.458,0 0,-2.95 2.817,-0.853 z"
       id="path47"
       inkscape:connector-curvature="0"
       style="fill:#003564" /><path
       d="m 579.034,366.921 c 0,-1.87 -0.033,-3.475 -0.132,-4.947 l 2.525,0 0.128,3.146 0.097,0 c 0.724,-2.134 2.494,-3.475 4.427,-3.475 0.297,0 0.525,0.033 0.784,0.064 l 0,2.722 c -0.293,-0.068 -0.587,-0.068 -0.979,-0.068 -2.03,0 -3.476,1.509 -3.871,3.675 -0.063,0.394 -0.097,0.881 -0.097,1.34 l 0,8.46 -2.882,0 0,-10.917 z"
       id="path49"
       inkscape:connector-curvature="0"
       style="fill:#003564" /><path
       d="m 603.716,373.474 c 0,1.673 0.035,3.114 0.135,4.363 l -2.562,0 -0.16,-2.595 -0.062,0 c -0.722,1.281 -2.427,2.955 -5.243,2.955 -2.495,0 -5.477,-1.41 -5.477,-6.95 l 0,-9.273 2.881,0 0,8.75 c 0,3.014 0.953,5.08 3.543,5.08 1.934,0 3.279,-1.346 3.799,-2.658 0.169,-0.393 0.265,-0.913 0.265,-1.474 l 0,-9.698 2.882,0 0,11.5 z"
       id="path51"
       inkscape:connector-curvature="0"
       style="fill:#003564" /><path
       d="m 620.507,377.276 c -0.756,0.359 -2.427,0.921 -4.557,0.921 -4.782,0 -7.896,-3.246 -7.896,-8.098 0,-4.88 3.338,-8.455 8.518,-8.455 1.706,0 3.21,0.43 4.003,0.853 l -0.657,2.193 c -0.688,-0.359 -1.769,-0.752 -3.346,-0.752 -3.634,0 -5.604,2.723 -5.604,5.997 0,3.673 2.361,5.932 5.508,5.932 1.636,0 2.722,-0.393 3.537,-0.753 l 0.494,2.162 z"
       id="path53"
       inkscape:connector-curvature="0"
       style="fill:#003564" /><path
       d="m 628.477,358.172 0,3.802 4.131,0 0,2.197 -4.131,0 0,8.55 c 0,1.97 0.56,3.083 2.165,3.083 0.788,0 1.244,-0.065 1.67,-0.196 l 0.135,2.196 c -0.561,0.193 -1.444,0.394 -2.561,0.394 -1.342,0 -2.427,-0.46 -3.111,-1.218 -0.787,-0.881 -1.116,-2.289 -1.116,-4.158 l 0,-8.65 -2.459,0 0,-2.197 2.458,0 0,-2.95 2.819,-0.853 z"
       id="path55"
       inkscape:connector-curvature="0"
       style="fill:#003564" /><path
       d="m 649.819,373.474 c 0,1.673 0.032,3.114 0.132,4.363 l -2.559,0 -0.16,-2.595 -0.067,0 c -0.72,1.281 -2.425,2.955 -5.244,2.955 -2.494,0 -5.472,-1.41 -5.472,-6.95 l 0,-9.273 2.883,0 0,8.75 c 0,3.014 0.952,5.08 3.539,5.08 1.936,0 3.277,-1.346 3.801,-2.658 0.164,-0.393 0.264,-0.913 0.264,-1.474 l 0,-9.698 2.884,0 0,11.5 z"
       id="path57"
       inkscape:connector-curvature="0"
       style="fill:#003564" /><path
       d="m 655.302,366.921 c 0,-1.87 -0.031,-3.475 -0.127,-4.947 l 2.521,0 0.127,3.146 0.103,0 c 0.723,-2.134 2.492,-3.475 4.422,-3.475 0.296,0 0.527,0.033 0.788,0.064 l 0,2.722 c -0.292,-0.068 -0.588,-0.068 -0.98,-0.068 -2.034,0 -3.475,1.509 -3.867,3.675 -0.067,0.394 -0.103,0.881 -0.103,1.34 l 0,8.46 -2.884,0 0,-10.917 z"
       id="path59"
       inkscape:connector-curvature="0"
       style="fill:#003564" /><path
       d="m 667.991,370.427 c 0.063,3.904 2.527,5.504 5.444,5.504 2.064,0 3.337,-0.359 4.386,-0.816 l 0.529,2.066 c -1.017,0.455 -2.785,1.017 -5.308,1.017 -4.883,0 -7.806,-3.246 -7.806,-8.03 0,-4.787 2.817,-8.522 7.442,-8.522 5.21,0 6.552,4.523 6.552,7.441 0,0.59 -0.031,1.014 -0.097,1.341 l -11.142,0 z m 8.453,-2.062 c 0.037,-1.806 -0.752,-4.659 -3.995,-4.659 -2.948,0 -4.193,2.659 -4.426,4.659 l 8.421,0 z"
       id="path61"
       inkscape:connector-curvature="0"
       style="fill:#003564" /><path
       d="m 250.346,417.183 0,-13.665 -2.193,0 0,-2.196 2.193,0 0,-0.753 c 0,-2.229 0.529,-4.263 1.837,-5.541 1.081,-1.048 2.525,-1.473 3.867,-1.473 1.048,0 1.9,0.229 2.457,0.461 l -0.392,2.226 c -0.429,-0.196 -0.985,-0.36 -1.838,-0.36 -2.456,0 -3.082,2.13 -3.082,4.588 l 0,0.853 3.835,0 0,2.196 -3.835,0 0,13.665 -2.849,0 z"
       id="path63"
       inkscape:connector-curvature="0"
       style="fill:#003564" /><path
       d="m 275.755,409.121 c 0,5.869 -4.099,8.422 -7.901,8.422 -4.259,0 -7.604,-3.146 -7.604,-8.157 0,-5.279 3.505,-8.39 7.869,-8.39 4.553,0 7.636,3.307 7.636,8.125 z m -12.552,0.165 c 0,3.47 1.96,6.096 4.782,6.096 2.75,0 4.814,-2.59 4.814,-6.164 0,-2.687 -1.343,-6.061 -4.745,-6.061 -3.378,0 -4.851,3.147 -4.851,6.129 z"
       id="path65"
       inkscape:connector-curvature="0"
       style="fill:#003564" /><path
       d="m 281.596,406.272 c 0,-1.869 -0.033,-3.475 -0.132,-4.951 l 2.525,0 0.132,3.146 0.097,0 c 0.719,-2.129 2.489,-3.471 4.427,-3.471 0.291,0 0.521,0.031 0.784,0.063 l 0,2.723 c -0.296,-0.067 -0.593,-0.067 -0.984,-0.067 -2.034,0 -3.475,1.508 -3.867,3.67 -0.064,0.392 -0.096,0.884 -0.096,1.346 l 0,8.452 -2.886,0 0,-10.911 z"
       id="path67"
       inkscape:connector-curvature="0"
       style="fill:#003564" /><path
       d="m 307.138,397.521 0,3.8 4.129,0 0,2.196 -4.129,0 0,8.554 c 0,1.965 0.559,3.078 2.164,3.078 0.789,0 1.245,-0.064 1.67,-0.195 l 0.136,2.197 c -0.561,0.195 -1.445,0.392 -2.562,0.392 -1.34,0 -2.425,-0.455 -3.109,-1.213 -0.788,-0.884 -1.117,-2.294 -1.117,-4.158 l 0,-8.654 -2.458,0 0,-2.196 2.458,0 0,-2.95 2.818,-0.851 z"
       id="path69"
       inkscape:connector-curvature="0"
       style="fill:#003564" /><path
       d="m 316.71,393.916 2.887,0 0,9.931 0.068,0 c 0.455,-0.82 1.177,-1.577 2.065,-2.065 0.848,-0.493 1.865,-0.785 2.946,-0.785 2.13,0 5.54,1.309 5.54,6.749 l 0,9.438 -2.883,0 0,-9.109 c 0,-2.558 -0.952,-4.688 -3.674,-4.688 -1.865,0 -3.306,1.309 -3.866,2.854 -0.16,0.424 -0.197,0.848 -0.197,1.372 l 0,9.57 -2.887,0 0,-23.267 z"
       id="path71"
       inkscape:connector-curvature="0"
       style="fill:#003564" /><path
       d="m 338.718,409.777 c 0.064,3.899 2.522,5.505 5.437,5.505 2.065,0 3.345,-0.36 4.395,-0.822 l 0.521,2.066 c -1.013,0.46 -2.785,1.017 -5.307,1.017 -4.884,0 -7.798,-3.241 -7.798,-8.028 0,-4.783 2.817,-8.519 7.437,-8.519 5.211,0 6.557,4.52 6.557,7.437 0,0.593 -0.031,1.018 -0.101,1.345 l -11.141,0 z m 8.453,-2.063 c 0.033,-1.802 -0.751,-4.656 -3.998,-4.656 -2.949,0 -4.195,2.653 -4.424,4.656 l 8.422,0 z"
       id="path73"
       inkscape:connector-curvature="0"
       style="fill:#003564" /><path
       d="m 368.555,410.234 -2.298,6.948 -2.945,0 7.535,-22.086 3.406,0 7.542,22.086 -3.05,0 -2.361,-6.948 -7.829,0 z m 7.277,-2.225 -2.202,-6.36 c -0.488,-1.44 -0.817,-2.751 -1.145,-4.031 l -0.064,0 c -0.329,1.28 -0.658,2.655 -1.113,3.999 l -2.166,6.393 6.69,0 z"
       id="path75"
       inkscape:connector-curvature="0"
       style="fill:#003564" /><path
       d="m 387.048,406.272 c 0,-1.869 -0.033,-3.475 -0.129,-4.951 l 2.522,0 0.131,3.146 0.102,0 c 0.719,-2.129 2.487,-3.471 4.422,-3.471 0.292,0 0.524,0.031 0.788,0.063 l 0,2.723 c -0.295,-0.067 -0.592,-0.067 -0.983,-0.067 -2.034,0 -3.477,1.508 -3.867,3.67 -0.064,0.392 -0.1,0.884 -0.1,1.346 l 0,8.452 -2.886,0 0,-10.911 z"
       id="path77"
       inkscape:connector-curvature="0"
       style="fill:#003564" /><path
       d="m 404.227,397.521 0,3.8 4.132,0 0,2.196 -4.132,0 0,8.554 c 0,1.965 0.56,3.078 2.165,3.078 0.789,0 1.245,-0.064 1.67,-0.195 l 0.136,2.197 c -0.561,0.195 -1.445,0.392 -2.561,0.392 -1.342,0 -2.427,-0.455 -3.111,-1.213 -0.788,-0.884 -1.115,-2.294 -1.115,-4.158 l 0,-8.654 -2.459,0 0,-2.196 2.459,0 0,-2.95 2.816,-0.851 z"
       id="path79"
       inkscape:connector-curvature="0"
       style="fill:#003564" /><path
       d="m 413.413,414.27 c 0.886,0.52 2.391,1.112 3.836,1.112 2.061,0 3.045,-1.017 3.045,-2.362 0,-1.376 -0.816,-2.097 -2.914,-2.882 -2.887,-1.048 -4.226,-2.59 -4.226,-4.489 0,-2.556 2.096,-4.652 5.468,-4.652 1.607,0 3.016,0.425 3.869,0.98 l -0.688,2.099 c -0.621,-0.395 -1.77,-0.949 -3.247,-0.949 -1.705,0 -2.619,0.98 -2.619,2.161 0,1.314 0.914,1.901 2.979,2.722 2.721,1.017 4.163,2.389 4.163,4.747 0,2.823 -2.193,4.787 -5.9,4.787 -1.737,0 -3.337,-0.455 -4.456,-1.112 l 0.69,-2.162 z"
       id="path81"
       inkscape:connector-curvature="0"
       style="fill:#003564" /><path
       d="m 449.277,413.38 c 0,1.378 0.068,2.722 0.229,3.803 l -2.588,0 -0.23,-2.001 -0.097,0 c -0.889,1.249 -2.595,2.361 -4.851,2.361 -3.21,0 -4.852,-2.261 -4.852,-4.555 0,-3.834 3.409,-5.932 9.534,-5.9 l 0,-0.328 c 0,-1.276 -0.36,-3.667 -3.603,-3.634 -1.505,0 -3.051,0.424 -4.163,1.177 l -0.655,-1.933 c 1.311,-0.821 3.245,-1.374 5.242,-1.374 4.852,0 6.032,3.307 6.032,6.454 l 0,5.93 z m -2.785,-4.29 c -3.147,-0.064 -6.722,0.488 -6.722,3.569 0,1.902 1.249,2.754 2.69,2.754 2.097,0 3.442,-1.312 3.898,-2.657 0.101,-0.324 0.133,-0.653 0.133,-0.913 l 0,-2.753 z"
       id="path83"
       inkscape:connector-curvature="0"
       style="fill:#003564" /><path
       d="m 456.134,405.615 c 0,-1.674 -0.031,-2.981 -0.127,-4.294 l 2.553,0 0.169,2.62 0.063,0 c 0.785,-1.473 2.622,-2.945 5.243,-2.945 2.194,0 5.605,1.309 5.605,6.749 l 0,9.438 -2.884,0 0,-9.141 c 0,-2.559 -0.952,-4.688 -3.675,-4.688 -1.864,0 -3.337,1.34 -3.865,2.949 -0.129,0.36 -0.196,0.849 -0.196,1.345 l 0,9.534 -2.887,0 0,-11.567 z"
       id="path85"
       inkscape:connector-curvature="0"
       style="fill:#003564" /><path
       d="m 490.198,393.916 0,19.169 c 0,1.408 0.064,3.017 0.131,4.098 l -2.558,0 -0.127,-2.753 -0.101,0 c -0.853,1.769 -2.75,3.113 -5.344,3.113 -3.834,0 -6.812,-3.241 -6.812,-8.061 -0.033,-5.275 3.273,-8.486 7.108,-8.486 2.458,0 4.067,1.145 4.788,2.39 l 0.063,0 0,-9.47 2.852,0 z m -2.85,13.86 c 0,-0.36 -0.031,-0.849 -0.128,-1.212 -0.428,-1.801 -2.002,-3.311 -4.163,-3.311 -2.985,0 -4.754,2.626 -4.754,6.095 0,3.216 1.607,5.87 4.687,5.87 1.934,0 3.702,-1.314 4.23,-3.443 0.097,-0.392 0.128,-0.788 0.128,-1.244 l 0,-2.755 z"
       id="path87"
       inkscape:connector-curvature="0"
       style="fill:#003564" /><path
       d="m 509.323,395.097 0,9.237 10.679,0 0,-9.237 2.887,0 0,22.086 -2.887,0 0,-10.354 -10.679,0 0,10.354 -2.886,0 0,-22.086 2.886,0 z"
       id="path89"
       inkscape:connector-curvature="0"
       style="fill:#003564" /><path
       d="m 543.219,412.825 c 0,1.668 0.034,3.112 0.135,4.357 l -2.561,0 -0.161,-2.589 -0.063,0 c -0.721,1.276 -2.427,2.949 -5.244,2.949 -2.494,0 -5.476,-1.408 -5.476,-6.948 l 0,-9.273 2.883,0 0,8.754 c 0,3.01 0.952,5.074 3.542,5.074 1.934,0 3.278,-1.345 3.798,-2.653 0.17,-0.394 0.264,-0.917 0.264,-1.473 l 0,-9.702 2.884,0 0,11.504 z"
       id="path91"
       inkscape:connector-curvature="0"
       style="fill:#003564" /><path
       d="m 550.21,405.615 c 0,-1.674 -0.062,-2.981 -0.132,-4.294 l 2.525,0 0.134,2.589 0.096,0 c 0.888,-1.505 2.36,-2.914 5.016,-2.914 2.13,0 3.766,1.309 4.454,3.179 l 0.064,0 c 0.497,-0.921 1.152,-1.577 1.806,-2.065 0.948,-0.722 1.965,-1.113 3.474,-1.113 2.13,0 5.244,1.374 5.244,6.88 l 0,9.307 -2.818,0 0,-8.946 c 0,-3.081 -1.147,-4.882 -3.442,-4.882 -1.67,0 -2.917,1.212 -3.438,2.589 -0.136,0.424 -0.231,0.917 -0.231,1.441 l 0,9.798 -2.818,0 0,-9.501 c 0,-2.526 -1.112,-4.327 -3.311,-4.327 -1.769,0 -3.11,1.44 -3.574,2.886 -0.159,0.392 -0.225,0.912 -0.225,1.408 l 0,9.534 -2.822,0 0,-11.569 z"
       id="path93"
       inkscape:connector-curvature="0"
       style="fill:#003564" /><path
       d="m 590.898,413.38 c 0,1.378 0.065,2.722 0.231,3.803 l -2.593,0 -0.228,-2.001 -0.101,0 c -0.88,1.249 -2.586,2.361 -4.849,2.361 -3.212,0 -4.851,-2.261 -4.851,-4.555 0,-3.834 3.406,-5.932 9.538,-5.9 l 0,-0.328 c 0,-1.276 -0.359,-3.667 -3.605,-3.634 -1.511,0 -3.047,0.424 -4.163,1.177 l -0.653,-1.933 c 1.31,-0.821 3.244,-1.374 5.245,-1.374 4.847,0 6.027,3.307 6.027,6.454 l 0,5.93 z m -2.786,-4.29 c -3.146,-0.064 -6.717,0.488 -6.717,3.569 0,1.902 1.24,2.754 2.688,2.754 2.096,0 3.437,-1.312 3.902,-2.657 0.096,-0.324 0.127,-0.653 0.127,-0.913 l 0,-2.753 z"
       id="path95"
       inkscape:connector-curvature="0"
       style="fill:#003564" /><path
       d="m 597.761,405.615 c 0,-1.674 -0.035,-2.981 -0.133,-4.294 l 2.557,0 0.16,2.62 0.068,0 c 0.789,-1.473 2.621,-2.945 5.244,-2.945 2.196,0 5.603,1.309 5.603,6.749 l 0,9.438 -2.885,0 0,-9.141 c 0,-2.559 -0.95,-4.688 -3.667,-4.688 -1.874,0 -3.346,1.34 -3.866,2.949 -0.136,0.36 -0.201,0.849 -0.201,1.345 l 0,9.534 -2.88,0 0,-11.567 z"
       id="path97"
       inkscape:connector-curvature="0"
       style="fill:#003564" /><path
       d="m 621.367,396.866 c 0,0.983 -0.688,1.768 -1.837,1.768 -1.049,0 -1.738,-0.784 -1.738,-1.768 0,-0.985 0.725,-1.802 1.805,-1.802 1.05,0 1.77,0.785 1.77,1.802 z m -3.214,20.317 0,-15.861 2.885,0 0,15.861 -2.885,0 z"
       id="path99"
       inkscape:connector-curvature="0"
       style="fill:#003564" /><path
       d="m 631.494,397.521 0,3.8 4.132,0 0,2.196 -4.132,0 0,8.554 c 0,1.965 0.562,3.078 2.165,3.078 0.789,0 1.245,-0.064 1.669,-0.195 l 0.138,2.197 c -0.562,0.195 -1.446,0.392 -2.562,0.392 -1.34,0 -2.425,-0.455 -3.11,-1.213 -0.788,-0.884 -1.117,-2.294 -1.117,-4.158 l 0,-8.654 -2.456,0 0,-2.196 2.456,0 0,-2.95 2.817,-0.851 z"
       id="path101"
       inkscape:connector-curvature="0"
       style="fill:#003564" /><path
       d="m 644.286,396.866 c 0,0.983 -0.688,1.768 -1.836,1.768 -1.049,0 -1.737,-0.784 -1.737,-1.768 0,-0.985 0.725,-1.802 1.805,-1.802 1.049,0 1.768,0.785 1.768,1.802 z m -3.213,20.317 0,-15.861 2.885,0 0,15.861 -2.885,0 z"
       id="path103"
       inkscape:connector-curvature="0"
       style="fill:#003564" /><path
       d="m 652.549,409.777 c 0.063,3.899 2.521,5.505 5.438,5.505 2.067,0 3.344,-0.36 4.393,-0.822 l 0.524,2.066 c -1.013,0.46 -2.787,1.017 -5.312,1.017 -4.881,0 -7.798,-3.241 -7.798,-8.028 0,-4.783 2.817,-8.519 7.438,-8.519 5.212,0 6.555,4.52 6.555,7.437 0,0.593 -0.031,1.018 -0.095,1.345 l -11.143,0 z m 8.454,-2.063 c 0.03,-1.802 -0.753,-4.656 -3.995,-4.656 -2.953,0 -4.193,2.653 -4.427,4.656 l 8.422,0 z"
       id="path105"
       inkscape:connector-curvature="0"
       style="fill:#003564" /><path
       d="m 669.177,414.27 c 0.88,0.52 2.39,1.112 3.834,1.112 2.062,0 3.046,-1.017 3.046,-2.362 0,-1.376 -0.82,-2.097 -2.919,-2.882 -2.881,-1.048 -4.227,-2.59 -4.227,-4.489 0,-2.556 2.098,-4.652 5.476,-4.652 1.603,0 3.011,0.425 3.866,0.98 l -0.688,2.099 c -0.623,-0.395 -1.767,-0.949 -3.245,-0.949 -1.704,0 -2.621,0.98 -2.621,2.161 0,1.314 0.917,1.901 2.98,2.722 2.719,1.017 4.159,2.389 4.159,4.747 0,2.823 -2.192,4.787 -5.896,4.787 -1.736,0 -3.342,-0.455 -4.455,-1.112 l 0.69,-2.162 z"
       id="path107"
       inkscape:connector-curvature="0"
       style="fill:#003564" /></g><g
     id="g109"
     transform="translate(-144.11,-157.219)"><g
       id="g111"><path
         d="m 267.428,321.216 c 11.829,0 19.386,-6.98 19.386,-20.125 0,-12.979 -7.721,-19.963 -19.386,-19.963 l -8.789,0 0,40.088 8.789,0 z m -19.304,-45.754 c 0,-2.219 1.15,-3.451 3.367,-3.451 l 16.512,0 c 17.99,0 29.736,10.68 29.736,29.08 0,18.4 -11.746,29.244 -29.736,29.244 l -16.512,0 c -2.217,0 -3.367,-1.15 -3.367,-3.451 l 0,-51.422 z"
         id="path113"
         inkscape:connector-curvature="0"
         style="fill:#003564" /><path
         d="m 334.208,306.759 -5.175,-15.609 c -0.985,-3.285 -2.3,-9.035 -2.3,-9.035 l -0.165,0 c 0,0 -1.314,5.75 -2.3,9.035 l -5.258,15.609 15.198,0 z m -14.047,-31.955 c 0.657,-1.889 1.891,-2.793 3.861,-2.793 l 5.257,0 c 1.972,0 3.286,0.904 3.86,2.793 l 18.236,51.588 c 0.821,2.381 -0.246,3.943 -2.793,3.943 l -3.777,0 c -1.973,0 -3.287,-0.904 -3.861,-2.793 l -4.107,-12.158 -20.455,0 -4.025,12.076 c -0.574,1.971 -1.889,2.875 -3.86,2.875 l -3.778,0 c -2.547,0 -3.615,-1.562 -2.793,-3.943 l 18.235,-51.588 z"
         id="path115"
         inkscape:connector-curvature="0"
         style="fill:#003564" /><path
         d="m 379.464,299.366 c 5.668,0 9.201,-3.533 9.201,-9.283 0,-3.697 -1.396,-6.654 -4.6,-7.967 -1.396,-0.66 -3.204,-0.988 -6.326,-0.988 l -7.803,0 0,18.238 9.528,0 z m -20.043,-23.904 c 0,-2.219 1.15,-3.451 3.369,-3.451 l 15.771,0 c 5.75,0 8.625,0.492 11.089,1.561 5.915,2.465 9.776,8.051 9.776,15.936 0,6.9 -3.614,13.473 -9.693,15.938 l 0,0.164 c 0,0 0.74,0.904 1.889,3.039 l 9.612,17.58 c 1.396,2.381 0.326,4.107 -2.383,4.107 l -4.437,0 c -1.889,0 -3.119,-0.74 -4.025,-2.383 l -10.268,-19.385 -10.186,0 0,18.316 c 0,2.301 -1.15,3.451 -3.369,3.451 l -3.777,0 c -2.219,0 -3.369,-1.15 -3.369,-3.451 l 0,-51.422 z"
         id="path117"
         inkscape:connector-curvature="0"
         style="fill:#003564" /><path
         d="m 410.837,275.462 c 0,-2.219 1.151,-3.451 3.368,-3.451 l 3.78,0 c 2.218,0 3.367,1.232 3.367,3.451 l 0,51.422 c 0,2.301 -1.149,3.451 -3.367,3.451 l -3.78,0 c -2.217,0 -3.368,-1.15 -3.368,-3.451 l 0,-51.422 z"
         id="path119"
         inkscape:connector-curvature="0"
         style="fill:#003564" /><path
         d="m 461.683,306.759 -5.175,-15.609 c -0.985,-3.285 -2.3,-9.035 -2.3,-9.035 l -0.164,0 c 0,0 -1.314,5.75 -2.3,9.035 l -5.257,15.609 15.196,0 z m -14.046,-31.955 c 0.656,-1.889 1.89,-2.793 3.861,-2.793 l 5.256,0 c 1.974,0 3.288,0.904 3.86,2.793 l 18.236,51.588 c 0.821,2.381 -0.246,3.943 -2.793,3.943 l -3.777,0 c -1.971,0 -3.285,-0.904 -3.86,-2.793 l -4.106,-12.158 -20.455,0 -4.026,12.076 c -0.573,1.971 -1.888,2.875 -3.858,2.875 l -3.781,0 c -2.545,0 -3.613,-1.562 -2.791,-3.943 l 18.234,-51.588 z"
         id="path121"
         inkscape:connector-curvature="0"
         style="fill:#003564" /><path
         d="m 486.896,275.462 c 0,-2.219 1.15,-3.451 3.367,-3.451 l 3.78,0 c 2.218,0 3.367,1.232 3.367,3.451 l 0,21.275 26.696,0 0,-21.275 c 0,-2.219 1.151,-3.451 3.451,-3.451 l 3.697,0 c 2.219,0 3.367,1.232 3.367,3.451 l 0,51.422 c 0,2.301 -1.148,3.451 -3.367,3.451 l -3.697,0 c -2.3,0 -3.451,-1.15 -3.451,-3.451 l 0,-21.029 -26.696,0 0,21.029 c 0,2.301 -1.149,3.451 -3.367,3.451 l -3.78,0 c -2.217,0 -3.367,-1.15 -3.367,-3.451 l 0,-51.422 z"
         id="path123"
         inkscape:connector-curvature="0"
         style="fill:#003564" /><path
         d="m 546.117,307.991 0,-2.301 c 0,-2.217 1.231,-3.367 3.451,-3.367 l 17.823,0 c 2.221,0 3.453,1.15 3.453,3.367 l 0,2.301 c 0,2.299 -1.232,3.449 -3.453,3.449 l -17.823,0 c -2.219,0 -3.451,-1.15 -3.451,-3.449"
         id="path125"
         inkscape:connector-curvature="0"
         style="fill:#003564" /><path
         d="m 601.645,321.216 c 11.829,0 19.387,-6.98 19.387,-20.125 0,-12.979 -7.722,-19.963 -19.387,-19.963 l -8.79,0 0,40.088 8.79,0 z m -19.306,-45.754 c 0,-2.219 1.151,-3.451 3.368,-3.451 l 16.513,0 c 17.989,0 29.736,10.68 29.736,29.08 0,18.4 -11.747,29.244 -29.736,29.244 l -16.513,0 c -2.217,0 -3.368,-1.15 -3.368,-3.451 l 0,-51.422 z"
         id="path127"
         inkscape:connector-curvature="0"
         style="fill:#003564" /><path
         d="m 642.137,275.462 c 0,-2.219 1.151,-3.451 3.368,-3.451 l 28.093,0 c 2.22,0 3.451,1.232 3.451,3.451 l 0,2.299 c 0,2.219 -1.231,3.367 -3.451,3.367 l -20.945,0 0,15.279 16.265,0 c 2.217,0 3.449,1.15 3.449,3.369 l 0,2.301 c 0,2.299 -1.232,3.447 -3.449,3.447 l -16.265,0 0,15.691 22.26,0 c 2.22,0 3.452,1.15 3.452,3.367 l 0,2.301 c 0,2.301 -1.232,3.451 -3.452,3.451 l -29.407,0 c -2.217,0 -3.368,-1.15 -3.368,-3.451 l 0,-51.421 z"
         id="path129"
         inkscape:connector-curvature="0"
         style="fill:#003564" /><path
         d="m 213.113,198.907 c 0,-10.174 13.099,-16.463 21.722,-21.688 6.775,4.126 22.577,11.591 22.58,22.297 0.004,11.884 -4.943,31.255 -8.877,31.339 -4.279,0.094 -10.191,-24.552 -13.338,-24.487 -3.145,0.066 -9,24.587 -12.947,24.581 -4.285,-0.007 -9.14,-20.969 -9.14,-32.042"
         id="path131"
         inkscape:connector-curvature="0"
         style="fill:#3d4365" /><path
         d="m 178.023,256.302 c -9.676,-3.146 -11.608,-17.547 -13.913,-27.361 6.018,-5.17 18,-17.892 28.184,-14.587 11.303,3.67 28.197,14.358 27.061,18.128 -1.23,4.098 -26.499,2.105 -27.408,5.117 -0.912,3.012 20.601,16.158 19.375,19.912 -1.331,4.07 -22.766,2.211 -33.299,-1.209"
         id="path133"
         inkscape:connector-curvature="0"
         style="fill:#707294" /><path
         d="m 221.765,307.407 c -5.982,8.229 -20.272,5.617 -30.32,4.779 -3.058,-7.32 -11.452,-22.65 -5.164,-31.312 6.984,-9.615 22.371,-22.377 25.603,-20.135 3.517,2.436 -6.187,25.852 -3.601,27.648 2.582,1.799 21.734,-14.6 24.924,-12.273 3.46,2.522 -4.933,22.334 -11.442,31.293"
         id="path135"
         inkscape:connector-curvature="0"
         style="fill:#003564" /><path
         d="m 278.537,214.539 c 9.679,-3.144 19.706,7.37 27.341,13.958 -1.83,7.717 -4.046,25.053 -14.227,28.363 -11.303,3.678 -31.253,4.959 -32.549,1.244 -1.413,-4.041 20.199,-17.283 19.166,-20.254 -1.032,-2.971 -26.166,-0.961 -27.379,-4.717 -1.318,-4.079 17.12,-15.171 27.648,-18.594"
         id="path137"
         inkscape:connector-curvature="0"
         style="fill:#434e79" /></g></g></svg>